<?xml version="1.0" standalone="no"?>
<!DOCTYPE svg PUBLIC "-//W3C//DTD SVG 20010904//EN"
 "http://www.w3.org/TR/2001/REC-SVG-20010904/DTD/svg10.dtd">
<svg version="1.0" xmlns="http://www.w3.org/2000/svg"
 width="512.000000pt" height="512.000000pt" viewBox="0 0 512.000000 512.000000"
 preserveAspectRatio="xMidYMid meet">

<g transform="translate(0.000000,512.000000) scale(0.100000,-0.100000)"
fill="#000000" stroke="none">
<path d="M3338 5076 c-220 -75 -403 -202 -546 -380 -98 -121 -158 -232 -206
-379 -22 -68 -46 -257 -46 -364 l0 -36 88 7 c153 13 337 73 429 142 17 13 35
24 38 24 13 0 152 119 199 171 113 125 217 326 261 504 19 79 25 126 25 223
l0 122 -72 -1 c-55 0 -97 -9 -170 -33z"/>
<path d="M3205 3850 c-55 -16 -131 -41 -170 -55 -38 -15 -92 -35 -120 -45 -27
-10 -81 -30 -120 -45 -122 -45 -198 -59 -258 -45 -54 12 -144 42 -257 84 -36
14 -103 39 -150 56 -47 18 -105 36 -130 40 -25 5 -65 13 -90 19 -121 28 -381
4 -535 -49 -161 -56 -334 -167 -460 -294 -219 -221 -328 -433 -405 -784 -18
-82 -20 -130 -20 -390 0 -255 3 -313 20 -412 50 -282 129 -554 220 -765 17
-38 117 -245 128 -265 5 -8 15 -26 22 -40 36 -68 59 -104 139 -224 25 -38 51
-76 56 -85 6 -9 39 -54 75 -101 146 -192 297 -333 415 -389 97 -46 123 -51
253 -51 141 0 184 9 353 75 238 93 328 115 484 115 84 0 253 -22 275 -35 5 -3
38 -17 72 -30 35 -13 88 -33 118 -45 155 -62 239 -80 362 -80 92 0 132 5 181
20 176 58 313 173 486 405 53 72 101 137 106 146 6 9 26 41 45 71 56 87 59 91
80 128 76 130 143 260 183 355 61 145 68 168 65 203 -3 38 -5 39 -144 124
-124 76 -296 248 -360 363 -113 201 -158 362 -158 575 0 243 73 463 218 656
50 67 171 188 264 264 34 28 62 55 62 60 0 22 -181 213 -251 265 -81 60 -229
138 -329 174 -137 49 -226 61 -430 60 -182 -1 -202 -3 -295 -29z"/>
</g>
</svg>
